<?xml version="1.0" encoding="UTF-8"?>
<svg xmlns="http://www.w3.org/2000/svg" xmlns:inkscape="http://www.inkscape.org/namespaces/inkscape" viewBox="0 0 128 128">
  <title>Generic symmetric 1x1 RimWorld cube workbench</title>
  <desc>Fixed-perspective blank workbench with a stuff-colored shell and neutral worktop.</desc>
  <defs>
    <radialGradient id="surface-light" cx="50%" cy="48%" r="65%">
      <stop offset="0" stop-color="#ececec"/>
      <stop offset="1" stop-color="#bcbcbc"/>
    </radialGradient>
  </defs>
  <g id="front-apron" inkscape:groupmode="layer" inkscape:label="Stuff-colored front apron">
    <polygon points="6,96 122,96 122,116 118,120 10,120 6,116" fill="#343839"/>
    <polygon points="10,100 118,100 118,114 114,116 14,116 10,114" fill="#aeb4b3"/>
    <path d="M14 102 H114" fill="none" stroke="#d9dddc" stroke-width="2"/>
  </g>
  <g id="stuff-shell" inkscape:groupmode="layer" inkscape:label="Stuff-colored top shell">
    <polygon points="10,8 118,8 122,12 122,98 118,102 10,102 6,98 6,12" fill="#343839"/>
    <polygon points="12,12 116,12 118,14 118,96 116,98 12,98 10,96 10,14" fill="#d9dddc"/>
    <path d="M12 12 H116 L118 14" fill="none" stroke="#ffffff" stroke-width="2"/>
  </g>
  <g id="neutral-worktop" inkscape:groupmode="layer" inkscape:label="Neutral worktop and overlay area">
    <polygon points="16,16 112,16 114,18 114,92 112,94 16,94 14,92 14,18" fill="url(#surface-light)"/>
  </g>
</svg>
